<svg xmlns="http://www.w3.org/2000/svg" width="26.69" height="23.354" viewBox="0 0 26.69 23.354"><defs><style>.a{fill:#797474;}</style></defs><path class="a" d="M.953,64.289H25.737a.953.953,0,0,0,.953-.953V60.953A.953.953,0,0,0,25.737,60H.953A.953.953,0,0,0,0,60.953v2.383A.953.953,0,0,0,.953,64.289Zm0,9.532H25.737a.953.953,0,0,0,.953-.953V70.485a.953.953,0,0,0-.953-.953H.953A.953.953,0,0,0,0,70.485v2.383A.953.953,0,0,0,.953,73.822Zm0,9.532H25.737a.953.953,0,0,0,.953-.953V80.018a.953.953,0,0,0-.953-.953H.953A.953.953,0,0,0,0,80.018V82.4A.953.953,0,0,0,.953,83.354Z" transform="translate(0 -60)"/></svg>